<?xml version="1.0" encoding="UTF-8"?>
<svg id="Layer_1" xmlns="http://www.w3.org/2000/svg" version="1.1" viewBox="0 0 366 366">
  <!-- Generator: Adobe Illustrator 29.2.1, SVG Export Plug-In . SVG Version: 2.1.0 Build 116)  -->
  <defs>
    <style>
      .st0 {
        fill: none;
        stroke: #fff;
        stroke-miterlimit: 10;
        stroke-width: 12px;
      }

      .st1 {
        fill: #fff;
      }
    </style>
  </defs>
  <g>
    <path class="st1" d="M169.34,250.11c-5.06,2.5-16.9,5.39-31.96,5.39-43.29,0-65.61-27.06-65.61-62.7,0-42.63,30.55-66.23,68.3-66.23,14.7,0,25.87,2.87,30.78,5.55l-5.76,22.35c-5.62-2.46-13.65-4.69-23.75-4.69-22.3,0-39.79,13.6-39.79,41.38,0,25.07,14.78,40.81,39.95,40.81,8.66,0,18.03-1.7,23.63-4.04l4.22,22.17Z"/>
    <path class="st1" d="M219.16,253.56l-40.11-125.03h30.96l15.13,52.93c4.37,14.87,8.17,29.02,11.29,44.61h.39c3.16-15.01,7.2-29.86,11.45-44.17l15.87-53.38h30.07l-42.04,125.03h-33.02Z"/>
  </g>
  <polygon class="st1" points="276.41 23.71 276.41 91.08 343.77 91.08 276.41 23.71"/>
  <polygon class="st0" points="20.42 20.5 20.42 345.5 345.42 345.5 345.58 88.27 278.21 20.9 20.42 20.5"/>
</svg>