<?xml version="1.0" encoding="UTF-8"?>
<svg id="Layer_1" xmlns="http://www.w3.org/2000/svg" version="1.1" viewBox="0 0 366 366">
  <!-- Generator: Adobe Illustrator 29.2.1, SVG Export Plug-In . SVG Version: 2.1.0 Build 116)  -->
  <defs>
    <style>
      .st0 {
        fill: #fff;
        fill-rule: evenodd;
      }
    </style>
  </defs>
  <path class="st0" d="M184.09,10.87C86.76,10.87,7.93,89.39,7.93,186.33c0,77.64,50.43,143.22,120.45,166.47,8.81,1.54,12.11-3.73,12.11-8.33,0-4.17-.22-17.98-.22-32.68-44.26,8.12-55.71-10.75-59.23-20.62-1.98-5.04-10.57-20.62-18.06-24.78-6.17-3.29-14.97-11.41-.22-11.62,13.87-.22,23.78,12.72,27.08,17.98,15.86,26.54,41.18,19.08,51.31,14.48,1.54-11.41,6.17-19.08,11.23-23.47-39.2-4.39-80.15-19.52-80.15-86.63,0-19.08,6.83-34.87,18.06-47.16-1.76-4.39-7.93-22.37,1.76-46.5,0,0,14.75-4.61,48.45,17.99,14.09-3.95,29.07-5.92,44.04-5.92s29.95,1.97,44.04,5.92c33.69-22.81,48.45-17.99,48.45-17.99,9.69,24.13,3.52,42.11,1.76,46.5,11.23,12.28,18.06,27.85,18.06,47.16,0,67.33-41.18,82.25-80.37,86.63,6.39,5.48,11.89,16.01,11.89,32.46,0,23.47-.22,42.33-.22,48.25,0,4.61,3.3,10.09,12.11,8.33,69.58-23.25,120.01-89.05,120.01-166.47,0-96.94-78.83-175.46-176.16-175.46Z"/>
</svg>