<?xml version="1.0" encoding="UTF-8"?>
<svg id="Layer_1" xmlns="http://www.w3.org/2000/svg" version="1.1" viewBox="0 0 366 366">
  <!-- Generator: Adobe Illustrator 29.2.1, SVG Export Plug-In . SVG Version: 2.1.0 Build 116)  -->
  <defs>
    <style>
      .st0 {
        fill: none;
        stroke: #fff;
        stroke-miterlimit: 15;
        stroke-width: 12px;
      }

      .st1 {
        fill: #fff;
      }
    </style>
  </defs>
  <path class="st1" d="M269.17,92.39v-18.38l13.34-10.41h-144.36l-87.17,75.77h57.81c-.1,1.43-.15,2.73-.15,4.2,0,14.07,4.87,25.7,14.63,35,9.75,9.31,21.77,13.94,35.99,13.94,3.32,0,6.58-.25,9.74-.69-1.96,4.39-2.95,8.45-2.95,12.24,0,6.66,3.04,13.79,9.09,21.36-26.48,1.8-45.93,6.57-58.34,14.28-7.11,4.39-12.82,9.92-17.14,16.56-4.31,6.68-6.46,13.85-6.46,21.57,0,6.51,1.39,12.38,4.2,17.59,2.81,5.21,6.46,9.5,11.01,12.81,4.53,3.35,9.77,6.14,15.67,8.42,5.89,2.26,11.75,3.86,17.59,4.77,5.82.91,11.61,1.35,17.35,1.35,9.09,0,18.19-1.17,27.37-3.5,9.15-2.35,17.74-5.83,25.76-10.46,8-4.59,14.52-10.86,19.52-18.71,4.99-7.88,7.49-16.74,7.49-26.55,0-7.43-1.52-14.2-4.56-20.34-3.02-6.12-6.71-11.16-11.1-15.08-4.39-3.92-8.77-7.53-13.17-10.78-4.39-3.27-8.1-6.58-11.11-10-3.03-3.41-4.55-6.79-4.55-10.11s1.17-6.53,3.52-9.63c2.33-3.11,5.18-6.11,8.51-8.98,3.33-2.87,6.66-6.05,9.99-9.54,3.32-3.47,6.17-7.98,8.51-13.5,2.35-5.52,3.51-11.77,3.51-18.73,0-9.08-1.72-16.51-5.09-22.48-.4-.69-.82-1.22-1.27-2.04l38.41-31.5v11.55c-4.99.63-4.47,3.61-4.47,7.18v86.84c0,4.02,3.29,7.31,7.31,7.31h2.69c4.02,0,7.31-3.29,7.31-7.31v-86.84c0-3.56.52-6.54-4.43-7.17h0ZM196.71,242.54c.77.51,2.5,1.88,5.21,4.08,2.73,2.19,4.59,3.84,5.58,5,.97,1.12,2.42,2.81,4.3,5.09,1.9,2.28,3.18,4.25,3.86,5.89.68,1.67,1.36,3.69,2.06,6.04.67,2.32,1,4.71,1,7.13,0,11.51-4.43,20.03-13.27,25.55-8.86,5.52-19.41,8.28-31.68,8.28-6.2,0-12.29-.74-18.26-2.16-5.97-1.43-11.68-3.6-17.14-6.48-5.45-2.87-9.84-6.89-13.16-12.01-3.33-5.16-5-11.08-5-17.72,0-6.97,1.89-13.02,5.68-18.16,3.78-5.15,8.73-9.04,14.87-11.69,6.12-2.66,12.32-4.55,18.6-5.67,6.28-1.15,12.69-1.72,19.19-1.72,3.02,0,5.36.17,7.02.47.31.15,2.05,1.4,5.22,3.75,3.17,2.34,5.15,3.78,5.91,4.31h0ZM194.45,174.66c-5,5.98-11.97,8.97-20.89,8.97-8,0-15.05-3.22-21.1-9.66-6.07-6.43-10.41-13.72-13.06-21.89-2.66-8.17-3.99-16.19-3.99-24.06,0-9.24,2.43-17.11,7.28-23.61,4.85-6.51,11.81-9.78,20.88-9.78,8.01,0,15.1,3.4,21.22,10.23,6.14,6.81,10.53,14.45,13.17,22.93,2.65,8.46,3.96,16.56,3.96,24.29,0,9.08-2.5,16.61-7.48,22.58h0Z"/>
  <circle class="st0" cx="184.75" cy="182.17" r="162.5"/>
</svg>