<?xml version="1.0" encoding="UTF-8"?>
<svg id="Layer_1" xmlns="http://www.w3.org/2000/svg" version="1.1" viewBox="0 0 366 366">
  <!-- Generator: Adobe Illustrator 29.2.1, SVG Export Plug-In . SVG Version: 2.1.0 Build 116)  -->
  <defs>
    <style>
      .st0 {
        fill: #fff;
        fill-rule: evenodd;
      }
    </style>
  </defs>
  <path class="st0" d="M10.42,184.54C10.42,88.62,88.18,10.87,184.09,10.87s173.67,77.76,173.67,173.67-77.75,173.67-173.67,173.67S10.42,280.45,10.42,184.54ZM99.43,155.23v116.14h36.91v-116.14h-36.91ZM97.26,118.33c0,11.94,8.68,20.62,20.62,20.62s20.62-8.68,20.62-20.62-8.68-20.62-20.62-20.62c-10.85,0-20.62,8.68-20.62,20.62ZM234.02,271.37h34.73v-71.64c0-35.82-21.71-47.76-42.33-47.76-18.45,0-31.48,11.94-34.73,19.54v-16.28h-34.73v116.14h36.91v-61.87c0-16.28,10.85-24.97,21.71-24.97s18.45,5.43,18.45,23.88v62.96Z"/>
</svg>